<?xml version="1.0" encoding="UTF-8"?>
<svg id="Capa_1" data-name="Capa 1" xmlns="http://www.w3.org/2000/svg" width="3520" height="1636" viewBox="0 0 352 163.6">
  <polygon points="178.86 46.99 178.86 100.48 165.49 100.48 142.09 63.04 142.09 100.48 132.06 100.48 132.06 46.99 145.43 46.99 168.83 84.43 168.83 46.99 178.86 46.99" fill="#fff"/>
  <polygon points="272.48 100.48 259.11 100.48 248.6 85.19 232.36 100.48 222.33 100.48 244.66 79.47 252.78 71.83 256.72 77.55 272.48 100.48" fill="#fff"/>
  <polygon points="192.25 57.01 192.25 68.72 218.98 68.72 218.98 78.75 192.25 78.75 192.25 90.45 218.98 90.45 218.98 100.48 182.22 100.48 182.22 46.99 218.98 46.99 218.98 57.01 192.25 57.01" fill="#fff"/>
  <line x1="304.76" y1="19.29" x2="304.75" y2="19.3" fill="#fff"/>
  <polygon points="304.75 19.3 251.26 69.62 243.15 77.26 222.33 46.99 235.71 46.99 246.2 62.26 304.75 19.3" fill="#fff"/>
  <line x1="304.76" y1="19.29" x2="304.75" y2="19.3" fill="#fff"/>
  <path d="M60.38,80.57c-2.59,5.54-8.17,9.4-14.68,9.4-8.97,0-16.24-7.27-16.24-16.24s7.27-16.24,16.24-16.24c6.52,0,12.11,3.87,14.69,9.41h11.68c-3.05-11.77-13.64-20.5-26.36-20.5-15.09,0-27.33,12.24-27.33,27.33s12.24,27.33,27.33,27.33c12.72,0,23.31-8.73,26.36-20.49h-11.68Z" fill="#fff"/>
  <path d="M333.58,100.47l-21.04-53.48h-15.66l-21.04,53.48h11.92l5.26-13.36h23.39l5.26,13.36h11.92ZM296.95,77.08l7.75-19.7,7.75,19.7h-15.5Z" fill="#fff"/>
  <path d="M101.66,46.4c-15.09,0-27.33,12.24-27.33,27.33s12.24,27.33,27.33,27.33,27.33-12.24,27.33-27.33-12.24-27.33-27.33-27.33ZM101.65,89.97c-8.97,0-16.24-7.27-16.24-16.24s7.27-16.24,16.24-16.24,16.24,7.27,16.24,16.24-7.27,16.24-16.24,16.24Z" fill="#fff"/>
  <rect x="18.38" y="113.16" width="315.2" height="1.4" fill="#fff"/>
  <g>
    <path d="M29.66,127.1v.85h-10.36v6.85h8.91v.85h-8.91v8.32h-.95v-16.88h11.31Z" fill="#fff"/>
    <path d="M40.66,143.98h-.95v-16.88h.95v16.88Z" fill="#fff"/>
    <path d="M64.22,142.6v-15.5h.9v16.88h-1.02l-10.83-15.48v15.48h-.9v-16.88h1l10.86,15.5Z" fill="#fff"/>
    <path d="M90.57,143.98h-1.07l-2.25-5.48h-8.63l-2.28,5.48h-1.02l7.11-16.92h1.02l7.11,16.92ZM82.68,128.79l-3.7,8.86h7.92l-3.67-8.86-.26-.83-.28.83Z" fill="#fff"/>
    <path d="M112.59,142.6v-15.5h.9v16.88h-1.02l-10.83-15.48v15.48h-.9v-16.88h1l10.86,15.5Z" fill="#fff"/>
    <path d="M132.1,144.31c-2.31,0-4.12-.82-5.45-2.47-1.34-1.63-2.01-3.74-2.01-6.33s.68-4.73,2.04-6.33c1.34-1.58,3.14-2.37,5.4-2.37,1.82,0,3.36.51,4.62,1.52,1.28,1.03,2.02,2.32,2.23,3.89h-.97c-.24-1.38-.89-2.47-1.94-3.3-1.07-.84-2.38-1.26-3.91-1.26-1.98,0-3.55.7-4.72,2.11-1.18,1.42-1.78,3.33-1.78,5.74s.58,4.28,1.75,5.74c1.17,1.45,2.76,2.18,4.76,2.18,1.61,0,2.97-.48,4.08-1.45,1.12-.98,1.74-2.25,1.85-3.82h.95c-.17,1.8-.89,3.27-2.16,4.41-1.26,1.15-2.84,1.73-4.74,1.73Z" fill="#fff"/>
    <path d="M150.54,143.98h-.95v-16.88h.95v16.88Z" fill="#fff"/>
    <path d="M175.98,143.98h-1.07l-2.25-5.48h-8.63l-2.28,5.48h-1.02l7.11-16.92h1.02l7.11,16.92ZM168.08,128.79l-3.7,8.86h7.92l-3.67-8.86-.26-.83-.28.83Z" fill="#fff"/>
    <path d="M187.09,127.1v16.02h9.84v.85h-10.78v-16.88h.95Z" fill="#fff"/>
    <path d="M228.64,136.32v-.85h7.18v8.51h-.76l-.17-3.82c-.52,1.31-1.35,2.33-2.48,3.04-1.13.72-2.48,1.08-4.04,1.08-2.37,0-4.25-.81-5.64-2.42-1.39-1.6-2.09-3.72-2.09-6.38s.69-4.79,2.06-6.35c1.38-1.56,3.28-2.35,5.71-2.35,1.96,0,3.58.47,4.86,1.4,1.28.93,2.07,2.22,2.37,3.86l-.92.07c-.25-1.34-.92-2.42-1.99-3.25s-2.5-1.23-4.27-1.23c-2.15,0-3.83.7-5.05,2.11-1.2,1.39-1.8,3.31-1.8,5.76s.6,4.3,1.8,5.74c1.22,1.45,2.88,2.18,4.98,2.18,1.8,0,3.28-.53,4.43-1.59,1.15-1.06,1.83-2.52,2.04-4.38v-1.14h-6.23Z" fill="#fff"/>
    <path d="M259.43,139.19l.57,4.79h-.97l-.52-4.46c-.11-1.04-.41-1.84-.9-2.39-.57-.62-1.64-.92-3.22-.92h-5.9v7.77h-.95v-16.88h7.47c1.5,0,2.69.39,3.58,1.18.88.79,1.33,1.86,1.33,3.22,0,1.17-.31,2.12-.94,2.86-.62.73-1.49,1.21-2.6,1.41.98.14,1.71.49,2.18,1.04s.77,1.34.88,2.37ZM248.48,127.96v7.37h6.02c1.41,0,2.5-.33,3.27-.98.77-.65,1.16-1.58,1.16-2.76s-.35-2.05-1.05-2.68c-.7-.63-1.7-.95-3-.95h-6.4Z" fill="#fff"/>
    <path d="M278.68,144.31c-2.35,0-4.24-.82-5.67-2.47-1.42-1.64-2.13-3.74-2.13-6.3s.71-4.66,2.13-6.3c1.42-1.61,3.31-2.42,5.67-2.42s4.27.81,5.69,2.42c1.42,1.64,2.13,3.74,2.13,6.3s-.71,4.66-2.13,6.3c-1.42,1.64-3.32,2.47-5.69,2.47ZM278.68,143.43c2.07,0,3.74-.73,5-2.18,1.23-1.44,1.85-3.34,1.85-5.71s-.62-4.26-1.85-5.71c-1.25-1.44-2.92-2.16-5-2.16s-3.72.72-4.95,2.16c-1.25,1.44-1.87,3.34-1.87,5.71s.62,4.25,1.87,5.69c1.23,1.47,2.88,2.21,4.95,2.21Z" fill="#fff"/>
    <path d="M303.92,144.29c-2.01,0-3.56-.48-4.66-1.43-1.1-.96-1.65-2.42-1.65-4.4v-11.35h.95v11.38c0,3.3,1.79,4.95,5.36,4.95s5.33-1.65,5.33-4.95v-11.38h.95v11.35c0,1.96-.55,3.42-1.66,4.38-1.11.96-2.65,1.45-4.62,1.45Z" fill="#fff"/>
    <path d="M321.94,127.1h6.59c1.56,0,2.81.41,3.73,1.22s1.39,1.96,1.39,3.42-.47,2.66-1.41,3.48c-.94.82-2.25,1.23-3.92,1.23h-5.43v7.51h-.95v-16.88ZM322.89,135.61h5.45c1.39,0,2.47-.33,3.22-1,.76-.66,1.14-1.62,1.14-2.87s-.38-2.13-1.14-2.8c-.76-.66-1.78-1-3.06-1h-5.62v7.66Z" fill="#fff"/>
  </g>
</svg>