<?xml version="1.0" encoding="UTF-8"?>
<svg id="Capa_1" data-name="Capa 1" xmlns="http://www.w3.org/2000/svg" width="1000" height="1000" viewBox="0 0 100 100">
  <polygon points="50.76 40.74 50.76 54.97 47.2 54.97 40.98 45.01 40.98 54.97 38.31 54.97 38.31 40.74 41.87 40.74 48.09 50.7 48.09 40.74 50.76 40.74" fill="#fff"/>
  <polygon points="75.67 54.97 72.11 54.97 69.31 50.9 64.99 54.97 62.32 54.97 68.27 49.38 70.42 47.35 71.47 48.87 75.67 54.97" fill="#fff"/>
  <polygon points="54.32 43.41 54.32 46.52 61.43 46.52 61.43 49.19 54.32 49.19 54.32 52.3 61.43 52.3 61.43 54.97 51.65 54.97 51.65 40.74 61.43 40.74 61.43 43.41 54.32 43.41" fill="#fff"/>
  <line x1="84.25" y1="33.37" x2="84.25" y2="33.37" fill="#fff"/>
  <polygon points="84.25 33.37 70.02 46.76 67.86 48.79 62.32 40.74 65.88 40.74 68.68 44.8 84.25 33.37" fill="#fff"/>
  <line x1="84.25" y1="33.37" x2="84.25" y2="33.37" fill="#fff"/>
  <path d="M19.24,49.67c-.69,1.47-2.17,2.5-3.91,2.5-2.39,0-4.32-1.93-4.32-4.32s1.93-4.32,4.32-4.32c1.73,0,3.22,1.03,3.91,2.5h3.11c-.81-3.13-3.63-5.45-7.01-5.45-4.02,0-7.27,3.25-7.27,7.27s3.26,7.27,7.27,7.27c3.38,0,6.2-2.32,7.01-5.45h-3.11Z" fill="#fff"/>
  <path d="M91.92,54.97l-5.6-14.23h-4.17l-5.6,14.23h3.17l1.4-3.56h6.22l1.4,3.56h3.17ZM82.18,48.74l2.06-5.24,2.06,5.24h-4.12Z" fill="#fff"/>
  <path d="M30.22,40.58c-4.02,0-7.27,3.25-7.27,7.27s3.25,7.27,7.27,7.27,7.27-3.25,7.27-7.27-3.25-7.27-7.27-7.27ZM30.22,52.17c-2.39,0-4.32-1.93-4.32-4.32s1.93-4.32,4.32-4.32,4.32,1.93,4.32,4.32-1.93,4.32-4.32,4.32Z" fill="#fff"/>
  <rect x="8.07" y="58.34" width="83.85" height=".37" fill="#fff"/>
  <g>
    <path d="M11.07,62.05v.23h-2.76v1.82h2.37v.23h-2.37v2.21h-.25v-4.49h3.01Z" fill="#fff"/>
    <path d="M14,66.54h-.25v-4.49h.25v4.49Z" fill="#fff"/>
    <path d="M20.26,66.18v-4.12h.24v4.49h-.27l-2.88-4.12v4.12h-.24v-4.49h.26l2.89,4.12Z" fill="#fff"/>
    <path d="M27.28,66.54h-.28l-.6-1.46h-2.3l-.61,1.46h-.27l1.89-4.5h.27l1.89,4.5ZM25.18,62.5l-.98,2.36h2.11l-.98-2.36-.07-.22-.08.22Z" fill="#fff"/>
    <path d="M33.13,66.18v-4.12h.24v4.49h-.27l-2.88-4.12v4.12h-.24v-4.49h.26l2.89,4.12Z" fill="#fff"/>
    <path d="M38.32,66.63c-.61,0-1.1-.22-1.45-.66-.36-.43-.54-.99-.54-1.68s.18-1.26.54-1.68c.36-.42.84-.63,1.44-.63.48,0,.89.13,1.23.4.34.27.54.62.59,1.03h-.26c-.06-.37-.24-.66-.52-.88-.29-.22-.63-.33-1.04-.33-.53,0-.94.19-1.25.56-.32.38-.47.89-.47,1.53s.16,1.14.47,1.53c.31.39.73.58,1.27.58.43,0,.79-.13,1.08-.38.3-.26.46-.6.49-1.02h.25c-.05.48-.24.87-.57,1.17-.34.31-.76.46-1.26.46Z" fill="#fff"/>
    <path d="M43.23,66.54h-.25v-4.49h.25v4.49Z" fill="#fff"/>
    <path d="M49.99,66.54h-.28l-.6-1.46h-2.3l-.61,1.46h-.27l1.89-4.5h.27l1.89,4.5ZM47.89,62.5l-.98,2.36h2.11l-.98-2.36-.07-.22-.08.22Z" fill="#fff"/>
    <path d="M52.95,62.05v4.26h2.62v.23h-2.87v-4.49h.25Z" fill="#fff"/>
    <path d="M64,64.5v-.23h1.91v2.26h-.2l-.04-1.02c-.14.35-.36.62-.66.81-.3.19-.66.29-1.08.29-.63,0-1.13-.21-1.5-.64-.37-.42-.55-.99-.55-1.7s.18-1.27.55-1.69c.37-.42.87-.62,1.52-.62.52,0,.95.12,1.29.37s.55.59.63,1.03l-.25.02c-.07-.36-.24-.64-.53-.86s-.66-.33-1.14-.33c-.57,0-1.02.19-1.34.56-.32.37-.48.88-.48,1.53s.16,1.14.48,1.53c.32.39.77.58,1.32.58.48,0,.87-.14,1.18-.42.31-.28.49-.67.54-1.17v-.3h-1.66Z" fill="#fff"/>
    <path d="M72.19,65.27l.15,1.27h-.26l-.14-1.19c-.03-.28-.11-.49-.24-.64-.15-.16-.44-.25-.86-.25h-1.57v2.07h-.25v-4.49h1.99c.4,0,.72.1.95.32.24.21.35.5.35.86,0,.31-.08.56-.25.76-.17.2-.4.32-.69.37.26.04.45.13.58.28s.2.36.23.63ZM69.28,62.28v1.96h1.6c.37,0,.66-.09.87-.26.21-.17.31-.42.31-.73s-.09-.54-.28-.71c-.19-.17-.45-.25-.8-.25h-1.7Z" fill="#fff"/>
    <path d="M77.31,66.63c-.63,0-1.13-.22-1.51-.66-.38-.44-.57-1-.57-1.68s.19-1.24.57-1.68c.38-.43.88-.64,1.51-.64s1.14.21,1.51.64c.38.44.57,1,.57,1.68s-.19,1.24-.57,1.68c-.38.44-.88.66-1.51.66ZM77.31,66.4c.55,0,.99-.19,1.33-.58.33-.38.49-.89.49-1.52s-.16-1.13-.49-1.52c-.33-.38-.78-.57-1.33-.57s-.99.19-1.32.57c-.33.38-.5.89-.5,1.52s.17,1.13.5,1.51c.33.39.77.59,1.32.59Z" fill="#fff"/>
    <path d="M84.03,66.62c-.53,0-.95-.13-1.24-.38-.29-.25-.44-.64-.44-1.17v-3.02h.25v3.03c0,.88.47,1.32,1.43,1.32s1.42-.44,1.42-1.32v-3.03h.25v3.02c0,.52-.15.91-.44,1.17-.29.26-.7.38-1.23.38Z" fill="#fff"/>
    <path d="M88.82,62.05h1.75c.42,0,.75.11.99.32s.37.52.37.91-.13.71-.38.93c-.25.22-.6.33-1.04.33h-1.44v2h-.25v-4.49ZM89.07,64.31h1.45c.37,0,.66-.09.86-.26.2-.18.3-.43.3-.76s-.1-.57-.3-.74c-.2-.18-.47-.26-.81-.26h-1.49v2.04Z" fill="#fff"/>
  </g>
</svg>